<svg width="404" height="3" viewBox="0 0 404 3" fill="none" xmlns="http://www.w3.org/2000/svg">
<path d="M1.20455 2.09091C0.924242 2.09091 0.683712 1.99053 0.482955 1.78977C0.282197 1.58902 0.181818 1.34848 0.181818 1.06818C0.181818 0.787879 0.282197 0.547348 0.482955 0.346591C0.683712 0.145833 0.924242 0.0454545 1.20455 0.0454545C1.48485 0.0454545 1.72538 0.145833 1.92614 0.346591C2.12689 0.547348 2.22727 0.787879 2.22727 1.06818C2.22727 1.25379 2.17992 1.42424 2.08523 1.57955C1.99432 1.73485 1.87121 1.85985 1.71591 1.95455C1.56439 2.04545 1.39394 2.09091 1.20455 2.09091ZM5.6108 2.09091C5.33049 2.09091 5.08996 1.99053 4.8892 1.78977C4.68845 1.58902 4.58807 1.34848 4.58807 1.06818C4.58807 0.787879 4.68845 0.547348 4.8892 0.346591C5.08996 0.145833 5.33049 0.0454545 5.6108 0.0454545C5.8911 0.0454545 6.13163 0.145833 6.33239 0.346591C6.53314 0.547348 6.63352 0.787879 6.63352 1.06818C6.63352 1.25379 6.58617 1.42424 6.49148 1.57955C6.40057 1.73485 6.27746 1.85985 6.12216 1.95455C5.97064 2.04545 5.80019 2.09091 5.6108 2.09091ZM10.017 2.09091C9.73674 2.09091 9.49621 1.99053 9.29545 1.78977C9.0947 1.58902 8.99432 1.34848 8.99432 1.06818C8.99432 0.787879 9.0947 0.547348 9.29545 0.346591C9.49621 0.145833 9.73674 0.0454545 10.017 0.0454545C10.2973 0.0454545 10.5379 0.145833 10.7386 0.346591C10.9394 0.547348 11.0398 0.787879 11.0398 1.06818C11.0398 1.25379 10.9924 1.42424 10.8977 1.57955C10.8068 1.73485 10.6837 1.85985 10.5284 1.95455C10.3769 2.04545 10.2064 2.09091 10.017 2.09091ZM14.4233 2.09091C14.143 2.09091 13.9025 1.99053 13.7017 1.78977C13.5009 1.58902 13.4006 1.34848 13.4006 1.06818C13.4006 0.787879 13.5009 0.547348 13.7017 0.346591C13.9025 0.145833 14.143 0.0454545 14.4233 0.0454545C14.7036 0.0454545 14.9441 0.145833 15.1449 0.346591C15.3456 0.547348 15.446 0.787879 15.446 1.06818C15.446 1.25379 15.3987 1.42424 15.304 1.57955C15.2131 1.73485 15.09 1.85985 14.9347 1.95455C14.7831 2.04545 14.6127 2.09091 14.4233 2.09091ZM18.8295 2.09091C18.5492 2.09091 18.3087 1.99053 18.108 1.78977C17.9072 1.58902 17.8068 1.34848 17.8068 1.06818C17.8068 0.787879 17.9072 0.547348 18.108 0.346591C18.3087 0.145833 18.5492 0.0454545 18.8295 0.0454545C19.1098 0.0454545 19.3504 0.145833 19.5511 0.346591C19.7519 0.547348 19.8523 0.787879 19.8523 1.06818C19.8523 1.25379 19.8049 1.42424 19.7102 1.57955C19.6193 1.73485 19.4962 1.85985 19.3409 1.95455C19.1894 2.04545 19.0189 2.09091 18.8295 2.09091ZM23.2358 2.09091C22.9555 2.09091 22.715 1.99053 22.5142 1.78977C22.3134 1.58902 22.2131 1.34848 22.2131 1.06818C22.2131 0.787879 22.3134 0.547348 22.5142 0.346591C22.715 0.145833 22.9555 0.0454545 23.2358 0.0454545C23.5161 0.0454545 23.7566 0.145833 23.9574 0.346591C24.1581 0.547348 24.2585 0.787879 24.2585 1.06818C24.2585 1.25379 24.2112 1.42424 24.1165 1.57955C24.0256 1.73485 23.9025 1.85985 23.7472 1.95455C23.5956 2.04545 23.4252 2.09091 23.2358 2.09091ZM27.642 2.09091C27.3617 2.09091 27.1212 1.99053 26.9205 1.78977C26.7197 1.58902 26.6193 1.34848 26.6193 1.06818C26.6193 0.787879 26.7197 0.547348 26.9205 0.346591C27.1212 0.145833 27.3617 0.0454545 27.642 0.0454545C27.9223 0.0454545 28.1629 0.145833 28.3636 0.346591C28.5644 0.547348 28.6648 0.787879 28.6648 1.06818C28.6648 1.25379 28.6174 1.42424 28.5227 1.57955C28.4318 1.73485 28.3087 1.85985 28.1534 1.95455C28.0019 2.04545 27.8314 2.09091 27.642 2.09091ZM32.0483 2.09091C31.768 2.09091 31.5275 1.99053 31.3267 1.78977C31.1259 1.58902 31.0256 1.34848 31.0256 1.06818C31.0256 0.787879 31.1259 0.547348 31.3267 0.346591C31.5275 0.145833 31.768 0.0454545 32.0483 0.0454545C32.3286 0.0454545 32.5691 0.145833 32.7699 0.346591C32.9706 0.547348 33.071 0.787879 33.071 1.06818C33.071 1.25379 33.0237 1.42424 32.929 1.57955C32.8381 1.73485 32.715 1.85985 32.5597 1.95455C32.4081 2.04545 32.2377 2.09091 32.0483 2.09091ZM36.4545 2.09091C36.1742 2.09091 35.9337 1.99053 35.733 1.78977C35.5322 1.58902 35.4318 1.34848 35.4318 1.06818C35.4318 0.787879 35.5322 0.547348 35.733 0.346591C35.9337 0.145833 36.1742 0.0454545 36.4545 0.0454545C36.7348 0.0454545 36.9754 0.145833 37.1761 0.346591C37.3769 0.547348 37.4773 0.787879 37.4773 1.06818C37.4773 1.25379 37.4299 1.42424 37.3352 1.57955C37.2443 1.73485 37.1212 1.85985 36.9659 1.95455C36.8144 2.04545 36.6439 2.09091 36.4545 2.09091ZM40.8608 2.09091C40.5805 2.09091 40.34 1.99053 40.1392 1.78977C39.9384 1.58902 39.8381 1.34848 39.8381 1.06818C39.8381 0.787879 39.9384 0.547348 40.1392 0.346591C40.34 0.145833 40.5805 0.0454545 40.8608 0.0454545C41.1411 0.0454545 41.3816 0.145833 41.5824 0.346591C41.7831 0.547348 41.8835 0.787879 41.8835 1.06818C41.8835 1.25379 41.8362 1.42424 41.7415 1.57955C41.6506 1.73485 41.5275 1.85985 41.3722 1.95455C41.2206 2.04545 41.0502 2.09091 40.8608 2.09091ZM45.267 2.09091C44.9867 2.09091 44.7462 1.99053 44.5455 1.78977C44.3447 1.58902 44.2443 1.34848 44.2443 1.06818C44.2443 0.787879 44.3447 0.547348 44.5455 0.346591C44.7462 0.145833 44.9867 0.0454545 45.267 0.0454545C45.5473 0.0454545 45.7879 0.145833 45.9886 0.346591C46.1894 0.547348 46.2898 0.787879 46.2898 1.06818C46.2898 1.25379 46.2424 1.42424 46.1477 1.57955C46.0568 1.73485 45.9337 1.85985 45.7784 1.95455C45.6269 2.04545 45.4564 2.09091 45.267 2.09091ZM49.6733 2.09091C49.393 2.09091 49.1525 1.99053 48.9517 1.78977C48.7509 1.58902 48.6506 1.34848 48.6506 1.06818C48.6506 0.787879 48.7509 0.547348 48.9517 0.346591C49.1525 0.145833 49.393 0.0454545 49.6733 0.0454545C49.9536 0.0454545 50.1941 0.145833 50.3949 0.346591C50.5956 0.547348 50.696 0.787879 50.696 1.06818C50.696 1.25379 50.6487 1.42424 50.554 1.57955C50.4631 1.73485 50.34 1.85985 50.1847 1.95455C50.0331 2.04545 49.8627 2.09091 49.6733 2.09091ZM54.0795 2.09091C53.7992 2.09091 53.5587 1.99053 53.358 1.78977C53.1572 1.58902 53.0568 1.34848 53.0568 1.06818C53.0568 0.787879 53.1572 0.547348 53.358 0.346591C53.5587 0.145833 53.7992 0.0454545 54.0795 0.0454545C54.3598 0.0454545 54.6004 0.145833 54.8011 0.346591C55.0019 0.547348 55.1023 0.787879 55.1023 1.06818C55.1023 1.25379 55.0549 1.42424 54.9602 1.57955C54.8693 1.73485 54.7462 1.85985 54.5909 1.95455C54.4394 2.04545 54.2689 2.09091 54.0795 2.09091ZM58.4858 2.09091C58.2055 2.09091 57.965 1.99053 57.7642 1.78977C57.5634 1.58902 57.4631 1.34848 57.4631 1.06818C57.4631 0.787879 57.5634 0.547348 57.7642 0.346591C57.965 0.145833 58.2055 0.0454545 58.4858 0.0454545C58.7661 0.0454545 59.0066 0.145833 59.2074 0.346591C59.4081 0.547348 59.5085 0.787879 59.5085 1.06818C59.5085 1.25379 59.4612 1.42424 59.3665 1.57955C59.2756 1.73485 59.1525 1.85985 58.9972 1.95455C58.8456 2.04545 58.6752 2.09091 58.4858 2.09091ZM62.892 2.09091C62.6117 2.09091 62.3712 1.99053 62.1705 1.78977C61.9697 1.58902 61.8693 1.34848 61.8693 1.06818C61.8693 0.787879 61.9697 0.547348 62.1705 0.346591C62.3712 0.145833 62.6117 0.0454545 62.892 0.0454545C63.1723 0.0454545 63.4129 0.145833 63.6136 0.346591C63.8144 0.547348 63.9148 0.787879 63.9148 1.06818C63.9148 1.25379 63.8674 1.42424 63.7727 1.57955C63.6818 1.73485 63.5587 1.85985 63.4034 1.95455C63.2519 2.04545 63.0814 2.09091 62.892 2.09091ZM67.2983 2.09091C67.018 2.09091 66.7775 1.99053 66.5767 1.78977C66.3759 1.58902 66.2756 1.34848 66.2756 1.06818C66.2756 0.787879 66.3759 0.547348 66.5767 0.346591C66.7775 0.145833 67.018 0.0454545 67.2983 0.0454545C67.5786 0.0454545 67.8191 0.145833 68.0199 0.346591C68.2206 0.547348 68.321 0.787879 68.321 1.06818C68.321 1.25379 68.2737 1.42424 68.179 1.57955C68.0881 1.73485 67.965 1.85985 67.8097 1.95455C67.6581 2.04545 67.4877 2.09091 67.2983 2.09091ZM71.7045 2.09091C71.4242 2.09091 71.1837 1.99053 70.983 1.78977C70.7822 1.58902 70.6818 1.34848 70.6818 1.06818C70.6818 0.787879 70.7822 0.547348 70.983 0.346591C71.1837 0.145833 71.4242 0.0454545 71.7045 0.0454545C71.9848 0.0454545 72.2254 0.145833 72.4261 0.346591C72.6269 0.547348 72.7273 0.787879 72.7273 1.06818C72.7273 1.25379 72.6799 1.42424 72.5852 1.57955C72.4943 1.73485 72.3712 1.85985 72.2159 1.95455C72.0644 2.04545 71.8939 2.09091 71.7045 2.09091ZM76.1108 2.09091C75.8305 2.09091 75.59 1.99053 75.3892 1.78977C75.1884 1.58902 75.0881 1.34848 75.0881 1.06818C75.0881 0.787879 75.1884 0.547348 75.3892 0.346591C75.59 0.145833 75.8305 0.0454545 76.1108 0.0454545C76.3911 0.0454545 76.6316 0.145833 76.8324 0.346591C77.0331 0.547348 77.1335 0.787879 77.1335 1.06818C77.1335 1.25379 77.0862 1.42424 76.9915 1.57955C76.9006 1.73485 76.7775 1.85985 76.6222 1.95455C76.4706 2.04545 76.3002 2.09091 76.1108 2.09091ZM80.517 2.09091C80.2367 2.09091 79.9962 1.99053 79.7955 1.78977C79.5947 1.58902 79.4943 1.34848 79.4943 1.06818C79.4943 0.787879 79.5947 0.547348 79.7955 0.346591C79.9962 0.145833 80.2367 0.0454545 80.517 0.0454545C80.7973 0.0454545 81.0379 0.145833 81.2386 0.346591C81.4394 0.547348 81.5398 0.787879 81.5398 1.06818C81.5398 1.25379 81.4924 1.42424 81.3977 1.57955C81.3068 1.73485 81.1837 1.85985 81.0284 1.95455C80.8769 2.04545 80.7064 2.09091 80.517 2.09091ZM84.9233 2.09091C84.643 2.09091 84.4025 1.99053 84.2017 1.78977C84.0009 1.58902 83.9006 1.34848 83.9006 1.06818C83.9006 0.787879 84.0009 0.547348 84.2017 0.346591C84.4025 0.145833 84.643 0.0454545 84.9233 0.0454545C85.2036 0.0454545 85.4441 0.145833 85.6449 0.346591C85.8456 0.547348 85.946 0.787879 85.946 1.06818C85.946 1.25379 85.8987 1.42424 85.804 1.57955C85.7131 1.73485 85.59 1.85985 85.4347 1.95455C85.2831 2.04545 85.1127 2.09091 84.9233 2.09091ZM89.3295 2.09091C89.0492 2.09091 88.8087 1.99053 88.608 1.78977C88.4072 1.58902 88.3068 1.34848 88.3068 1.06818C88.3068 0.787879 88.4072 0.547348 88.608 0.346591C88.8087 0.145833 89.0492 0.0454545 89.3295 0.0454545C89.6098 0.0454545 89.8504 0.145833 90.0511 0.346591C90.2519 0.547348 90.3523 0.787879 90.3523 1.06818C90.3523 1.25379 90.3049 1.42424 90.2102 1.57955C90.1193 1.73485 89.9962 1.85985 89.8409 1.95455C89.6894 2.04545 89.5189 2.09091 89.3295 2.09091ZM93.7358 2.09091C93.4555 2.09091 93.215 1.99053 93.0142 1.78977C92.8134 1.58902 92.7131 1.34848 92.7131 1.06818C92.7131 0.787879 92.8134 0.547348 93.0142 0.346591C93.215 0.145833 93.4555 0.0454545 93.7358 0.0454545C94.0161 0.0454545 94.2566 0.145833 94.4574 0.346591C94.6581 0.547348 94.7585 0.787879 94.7585 1.06818C94.7585 1.25379 94.7112 1.42424 94.6165 1.57955C94.5256 1.73485 94.4025 1.85985 94.2472 1.95455C94.0956 2.04545 93.9252 2.09091 93.7358 2.09091ZM98.142 2.09091C97.8617 2.09091 97.6212 1.99053 97.4205 1.78977C97.2197 1.58902 97.1193 1.34848 97.1193 1.06818C97.1193 0.787879 97.2197 0.547348 97.4205 0.346591C97.6212 0.145833 97.8617 0.0454545 98.142 0.0454545C98.4223 0.0454545 98.6629 0.145833 98.8636 0.346591C99.0644 0.547348 99.1648 0.787879 99.1648 1.06818C99.1648 1.25379 99.1174 1.42424 99.0227 1.57955C98.9318 1.73485 98.8087 1.85985 98.6534 1.95455C98.5019 2.04545 98.3314 2.09091 98.142 2.09091ZM102.548 2.09091C102.268 2.09091 102.027 1.99053 101.827 1.78977C101.626 1.58902 101.526 1.34848 101.526 1.06818C101.526 0.787879 101.626 0.547348 101.827 0.346591C102.027 0.145833 102.268 0.0454545 102.548 0.0454545C102.829 0.0454545 103.069 0.145833 103.27 0.346591C103.471 0.547348 103.571 0.787879 103.571 1.06818C103.571 1.25379 103.524 1.42424 103.429 1.57955C103.338 1.73485 103.215 1.85985 103.06 1.95455C102.908 2.04545 102.738 2.09091 102.548 2.09091ZM106.955 2.09091C106.674 2.09091 106.434 1.99053 106.233 1.78977C106.032 1.58902 105.932 1.34848 105.932 1.06818C105.932 0.787879 106.032 0.547348 106.233 0.346591C106.434 0.145833 106.674 0.0454545 106.955 0.0454545C107.235 0.0454545 107.475 0.145833 107.676 0.346591C107.877 0.547348 107.977 0.787879 107.977 1.06818C107.977 1.25379 107.93 1.42424 107.835 1.57955C107.744 1.73485 107.621 1.85985 107.466 1.95455C107.314 2.04545 107.144 2.09091 106.955 2.09091ZM111.361 2.09091C111.08 2.09091 110.84 1.99053 110.639 1.78977C110.438 1.58902 110.338 1.34848 110.338 1.06818C110.338 0.787879 110.438 0.547348 110.639 0.346591C110.84 0.145833 111.08 0.0454545 111.361 0.0454545C111.641 0.0454545 111.882 0.145833 112.082 0.346591C112.283 0.547348 112.384 0.787879 112.384 1.06818C112.384 1.25379 112.336 1.42424 112.241 1.57955C112.151 1.73485 112.027 1.85985 111.872 1.95455C111.721 2.04545 111.55 2.09091 111.361 2.09091ZM115.767 2.09091C115.487 2.09091 115.246 1.99053 115.045 1.78977C114.845 1.58902 114.744 1.34848 114.744 1.06818C114.744 0.787879 114.845 0.547348 115.045 0.346591C115.246 0.145833 115.487 0.0454545 115.767 0.0454545C116.047 0.0454545 116.288 0.145833 116.489 0.346591C116.689 0.547348 116.79 0.787879 116.79 1.06818C116.79 1.25379 116.742 1.42424 116.648 1.57955C116.557 1.73485 116.434 1.85985 116.278 1.95455C116.127 2.04545 115.956 2.09091 115.767 2.09091ZM120.173 2.09091C119.893 2.09091 119.652 1.99053 119.452 1.78977C119.251 1.58902 119.151 1.34848 119.151 1.06818C119.151 0.787879 119.251 0.547348 119.452 0.346591C119.652 0.145833 119.893 0.0454545 120.173 0.0454545C120.454 0.0454545 120.694 0.145833 120.895 0.346591C121.096 0.547348 121.196 0.787879 121.196 1.06818C121.196 1.25379 121.149 1.42424 121.054 1.57955C120.963 1.73485 120.84 1.85985 120.685 1.95455C120.533 2.04545 120.363 2.09091 120.173 2.09091ZM124.58 2.09091C124.299 2.09091 124.059 1.99053 123.858 1.78977C123.657 1.58902 123.557 1.34848 123.557 1.06818C123.557 0.787879 123.657 0.547348 123.858 0.346591C124.059 0.145833 124.299 0.0454545 124.58 0.0454545C124.86 0.0454545 125.1 0.145833 125.301 0.346591C125.502 0.547348 125.602 0.787879 125.602 1.06818C125.602 1.25379 125.555 1.42424 125.46 1.57955C125.369 1.73485 125.246 1.85985 125.091 1.95455C124.939 2.04545 124.769 2.09091 124.58 2.09091ZM128.986 2.09091C128.705 2.09091 128.465 1.99053 128.264 1.78977C128.063 1.58902 127.963 1.34848 127.963 1.06818C127.963 0.787879 128.063 0.547348 128.264 0.346591C128.465 0.145833 128.705 0.0454545 128.986 0.0454545C129.266 0.0454545 129.507 0.145833 129.707 0.346591C129.908 0.547348 130.009 0.787879 130.009 1.06818C130.009 1.25379 129.961 1.42424 129.866 1.57955C129.776 1.73485 129.652 1.85985 129.497 1.95455C129.346 2.04545 129.175 2.09091 128.986 2.09091ZM133.392 2.09091C133.112 2.09091 132.871 1.99053 132.67 1.78977C132.47 1.58902 132.369 1.34848 132.369 1.06818C132.369 0.787879 132.47 0.547348 132.67 0.346591C132.871 0.145833 133.112 0.0454545 133.392 0.0454545C133.672 0.0454545 133.913 0.145833 134.114 0.346591C134.314 0.547348 134.415 0.787879 134.415 1.06818C134.415 1.25379 134.367 1.42424 134.273 1.57955C134.182 1.73485 134.059 1.85985 133.903 1.95455C133.752 2.04545 133.581 2.09091 133.392 2.09091ZM137.798 2.09091C137.518 2.09091 137.277 1.99053 137.077 1.78977C136.876 1.58902 136.776 1.34848 136.776 1.06818C136.776 0.787879 136.876 0.547348 137.077 0.346591C137.277 0.145833 137.518 0.0454545 137.798 0.0454545C138.079 0.0454545 138.319 0.145833 138.52 0.346591C138.721 0.547348 138.821 0.787879 138.821 1.06818C138.821 1.25379 138.774 1.42424 138.679 1.57955C138.588 1.73485 138.465 1.85985 138.31 1.95455C138.158 2.04545 137.988 2.09091 137.798 2.09091ZM142.205 2.09091C141.924 2.09091 141.684 1.99053 141.483 1.78977C141.282 1.58902 141.182 1.34848 141.182 1.06818C141.182 0.787879 141.282 0.547348 141.483 0.346591C141.684 0.145833 141.924 0.0454545 142.205 0.0454545C142.485 0.0454545 142.725 0.145833 142.926 0.346591C143.127 0.547348 143.227 0.787879 143.227 1.06818C143.227 1.25379 143.18 1.42424 143.085 1.57955C142.994 1.73485 142.871 1.85985 142.716 1.95455C142.564 2.04545 142.394 2.09091 142.205 2.09091ZM146.611 2.09091C146.33 2.09091 146.09 1.99053 145.889 1.78977C145.688 1.58902 145.588 1.34848 145.588 1.06818C145.588 0.787879 145.688 0.547348 145.889 0.346591C146.09 0.145833 146.33 0.0454545 146.611 0.0454545C146.891 0.0454545 147.132 0.145833 147.332 0.346591C147.533 0.547348 147.634 0.787879 147.634 1.06818C147.634 1.25379 147.586 1.42424 147.491 1.57955C147.401 1.73485 147.277 1.85985 147.122 1.95455C146.971 2.04545 146.8 2.09091 146.611 2.09091ZM151.017 2.09091C150.737 2.09091 150.496 1.99053 150.295 1.78977C150.095 1.58902 149.994 1.34848 149.994 1.06818C149.994 0.787879 150.095 0.547348 150.295 0.346591C150.496 0.145833 150.737 0.0454545 151.017 0.0454545C151.297 0.0454545 151.538 0.145833 151.739 0.346591C151.939 0.547348 152.04 0.787879 152.04 1.06818C152.04 1.25379 151.992 1.42424 151.898 1.57955C151.807 1.73485 151.684 1.85985 151.528 1.95455C151.377 2.04545 151.206 2.09091 151.017 2.09091ZM155.423 2.09091C155.143 2.09091 154.902 1.99053 154.702 1.78977C154.501 1.58902 154.401 1.34848 154.401 1.06818C154.401 0.787879 154.501 0.547348 154.702 0.346591C154.902 0.145833 155.143 0.0454545 155.423 0.0454545C155.704 0.0454545 155.944 0.145833 156.145 0.346591C156.346 0.547348 156.446 0.787879 156.446 1.06818C156.446 1.25379 156.399 1.42424 156.304 1.57955C156.213 1.73485 156.09 1.85985 155.935 1.95455C155.783 2.04545 155.613 2.09091 155.423 2.09091ZM159.83 2.09091C159.549 2.09091 159.309 1.99053 159.108 1.78977C158.907 1.58902 158.807 1.34848 158.807 1.06818C158.807 0.787879 158.907 0.547348 159.108 0.346591C159.309 0.145833 159.549 0.0454545 159.83 0.0454545C160.11 0.0454545 160.35 0.145833 160.551 0.346591C160.752 0.547348 160.852 0.787879 160.852 1.06818C160.852 1.25379 160.805 1.42424 160.71 1.57955C160.619 1.73485 160.496 1.85985 160.341 1.95455C160.189 2.04545 160.019 2.09091 159.83 2.09091ZM164.236 2.09091C163.955 2.09091 163.715 1.99053 163.514 1.78977C163.313 1.58902 163.213 1.34848 163.213 1.06818C163.213 0.787879 163.313 0.547348 163.514 0.346591C163.715 0.145833 163.955 0.0454545 164.236 0.0454545C164.516 0.0454545 164.757 0.145833 164.957 0.346591C165.158 0.547348 165.259 0.787879 165.259 1.06818C165.259 1.25379 165.211 1.42424 165.116 1.57955C165.026 1.73485 164.902 1.85985 164.747 1.95455C164.596 2.04545 164.425 2.09091 164.236 2.09091ZM168.642 2.09091C168.362 2.09091 168.121 1.99053 167.92 1.78977C167.72 1.58902 167.619 1.34848 167.619 1.06818C167.619 0.787879 167.72 0.547348 167.92 0.346591C168.121 0.145833 168.362 0.0454545 168.642 0.0454545C168.922 0.0454545 169.163 0.145833 169.364 0.346591C169.564 0.547348 169.665 0.787879 169.665 1.06818C169.665 1.25379 169.617 1.42424 169.523 1.57955C169.432 1.73485 169.309 1.85985 169.153 1.95455C169.002 2.04545 168.831 2.09091 168.642 2.09091ZM173.048 2.09091C172.768 2.09091 172.527 1.99053 172.327 1.78977C172.126 1.58902 172.026 1.34848 172.026 1.06818C172.026 0.787879 172.126 0.547348 172.327 0.346591C172.527 0.145833 172.768 0.0454545 173.048 0.0454545C173.329 0.0454545 173.569 0.145833 173.77 0.346591C173.971 0.547348 174.071 0.787879 174.071 1.06818C174.071 1.25379 174.024 1.42424 173.929 1.57955C173.838 1.73485 173.715 1.85985 173.56 1.95455C173.408 2.04545 173.238 2.09091 173.048 2.09091ZM177.455 2.09091C177.174 2.09091 176.934 1.99053 176.733 1.78977C176.532 1.58902 176.432 1.34848 176.432 1.06818C176.432 0.787879 176.532 0.547348 176.733 0.346591C176.934 0.145833 177.174 0.0454545 177.455 0.0454545C177.735 0.0454545 177.975 0.145833 178.176 0.346591C178.377 0.547348 178.477 0.787879 178.477 1.06818C178.477 1.25379 178.43 1.42424 178.335 1.57955C178.244 1.73485 178.121 1.85985 177.966 1.95455C177.814 2.04545 177.644 2.09091 177.455 2.09091ZM181.861 2.09091C181.58 2.09091 181.34 1.99053 181.139 1.78977C180.938 1.58902 180.838 1.34848 180.838 1.06818C180.838 0.787879 180.938 0.547348 181.139 0.346591C181.34 0.145833 181.58 0.0454545 181.861 0.0454545C182.141 0.0454545 182.382 0.145833 182.582 0.346591C182.783 0.547348 182.884 0.787879 182.884 1.06818C182.884 1.25379 182.836 1.42424 182.741 1.57955C182.651 1.73485 182.527 1.85985 182.372 1.95455C182.221 2.04545 182.05 2.09091 181.861 2.09091ZM186.267 2.09091C185.987 2.09091 185.746 1.99053 185.545 1.78977C185.345 1.58902 185.244 1.34848 185.244 1.06818C185.244 0.787879 185.345 0.547348 185.545 0.346591C185.746 0.145833 185.987 0.0454545 186.267 0.0454545C186.547 0.0454545 186.788 0.145833 186.989 0.346591C187.189 0.547348 187.29 0.787879 187.29 1.06818C187.29 1.25379 187.242 1.42424 187.148 1.57955C187.057 1.73485 186.934 1.85985 186.778 1.95455C186.627 2.04545 186.456 2.09091 186.267 2.09091ZM190.673 2.09091C190.393 2.09091 190.152 1.99053 189.952 1.78977C189.751 1.58902 189.651 1.34848 189.651 1.06818C189.651 0.787879 189.751 0.547348 189.952 0.346591C190.152 0.145833 190.393 0.0454545 190.673 0.0454545C190.954 0.0454545 191.194 0.145833 191.395 0.346591C191.596 0.547348 191.696 0.787879 191.696 1.06818C191.696 1.25379 191.649 1.42424 191.554 1.57955C191.463 1.73485 191.34 1.85985 191.185 1.95455C191.033 2.04545 190.863 2.09091 190.673 2.09091ZM195.08 2.09091C194.799 2.09091 194.559 1.99053 194.358 1.78977C194.157 1.58902 194.057 1.34848 194.057 1.06818C194.057 0.787879 194.157 0.547348 194.358 0.346591C194.559 0.145833 194.799 0.0454545 195.08 0.0454545C195.36 0.0454545 195.6 0.145833 195.801 0.346591C196.002 0.547348 196.102 0.787879 196.102 1.06818C196.102 1.25379 196.055 1.42424 195.96 1.57955C195.869 1.73485 195.746 1.85985 195.591 1.95455C195.439 2.04545 195.269 2.09091 195.08 2.09091ZM199.486 2.09091C199.205 2.09091 198.965 1.99053 198.764 1.78977C198.563 1.58902 198.463 1.34848 198.463 1.06818C198.463 0.787879 198.563 0.547348 198.764 0.346591C198.965 0.145833 199.205 0.0454545 199.486 0.0454545C199.766 0.0454545 200.007 0.145833 200.207 0.346591C200.408 0.547348 200.509 0.787879 200.509 1.06818C200.509 1.25379 200.461 1.42424 200.366 1.57955C200.276 1.73485 200.152 1.85985 199.997 1.95455C199.846 2.04545 199.675 2.09091 199.486 2.09091ZM203.892 2.09091C203.612 2.09091 203.371 1.99053 203.17 1.78977C202.97 1.58902 202.869 1.34848 202.869 1.06818C202.869 0.787879 202.97 0.547348 203.17 0.346591C203.371 0.145833 203.612 0.0454545 203.892 0.0454545C204.172 0.0454545 204.413 0.145833 204.614 0.346591C204.814 0.547348 204.915 0.787879 204.915 1.06818C204.915 1.25379 204.867 1.42424 204.773 1.57955C204.682 1.73485 204.559 1.85985 204.403 1.95455C204.252 2.04545 204.081 2.09091 203.892 2.09091ZM208.298 2.09091C208.018 2.09091 207.777 1.99053 207.577 1.78977C207.376 1.58902 207.276 1.34848 207.276 1.06818C207.276 0.787879 207.376 0.547348 207.577 0.346591C207.777 0.145833 208.018 0.0454545 208.298 0.0454545C208.579 0.0454545 208.819 0.145833 209.02 0.346591C209.221 0.547348 209.321 0.787879 209.321 1.06818C209.321 1.25379 209.274 1.42424 209.179 1.57955C209.088 1.73485 208.965 1.85985 208.81 1.95455C208.658 2.04545 208.488 2.09091 208.298 2.09091ZM212.705 2.09091C212.424 2.09091 212.184 1.99053 211.983 1.78977C211.782 1.58902 211.682 1.34848 211.682 1.06818C211.682 0.787879 211.782 0.547348 211.983 0.346591C212.184 0.145833 212.424 0.0454545 212.705 0.0454545C212.985 0.0454545 213.225 0.145833 213.426 0.346591C213.627 0.547348 213.727 0.787879 213.727 1.06818C213.727 1.25379 213.68 1.42424 213.585 1.57955C213.494 1.73485 213.371 1.85985 213.216 1.95455C213.064 2.04545 212.894 2.09091 212.705 2.09091ZM217.111 2.09091C216.83 2.09091 216.59 1.99053 216.389 1.78977C216.188 1.58902 216.088 1.34848 216.088 1.06818C216.088 0.787879 216.188 0.547348 216.389 0.346591C216.59 0.145833 216.83 0.0454545 217.111 0.0454545C217.391 0.0454545 217.632 0.145833 217.832 0.346591C218.033 0.547348 218.134 0.787879 218.134 1.06818C218.134 1.25379 218.086 1.42424 217.991 1.57955C217.901 1.73485 217.777 1.85985 217.622 1.95455C217.471 2.04545 217.3 2.09091 217.111 2.09091ZM221.517 2.09091C221.237 2.09091 220.996 1.99053 220.795 1.78977C220.595 1.58902 220.494 1.34848 220.494 1.06818C220.494 0.787879 220.595 0.547348 220.795 0.346591C220.996 0.145833 221.237 0.0454545 221.517 0.0454545C221.797 0.0454545 222.038 0.145833 222.239 0.346591C222.439 0.547348 222.54 0.787879 222.54 1.06818C222.54 1.25379 222.492 1.42424 222.398 1.57955C222.307 1.73485 222.184 1.85985 222.028 1.95455C221.877 2.04545 221.706 2.09091 221.517 2.09091ZM225.923 2.09091C225.643 2.09091 225.402 1.99053 225.202 1.78977C225.001 1.58902 224.901 1.34848 224.901 1.06818C224.901 0.787879 225.001 0.547348 225.202 0.346591C225.402 0.145833 225.643 0.0454545 225.923 0.0454545C226.204 0.0454545 226.444 0.145833 226.645 0.346591C226.846 0.547348 226.946 0.787879 226.946 1.06818C226.946 1.25379 226.899 1.42424 226.804 1.57955C226.713 1.73485 226.59 1.85985 226.435 1.95455C226.283 2.04545 226.113 2.09091 225.923 2.09091ZM230.33 2.09091C230.049 2.09091 229.809 1.99053 229.608 1.78977C229.407 1.58902 229.307 1.34848 229.307 1.06818C229.307 0.787879 229.407 0.547348 229.608 0.346591C229.809 0.145833 230.049 0.0454545 230.33 0.0454545C230.61 0.0454545 230.85 0.145833 231.051 0.346591C231.252 0.547348 231.352 0.787879 231.352 1.06818C231.352 1.25379 231.305 1.42424 231.21 1.57955C231.119 1.73485 230.996 1.85985 230.841 1.95455C230.689 2.04545 230.519 2.09091 230.33 2.09091ZM234.736 2.09091C234.455 2.09091 234.215 1.99053 234.014 1.78977C233.813 1.58902 233.713 1.34848 233.713 1.06818C233.713 0.787879 233.813 0.547348 234.014 0.346591C234.215 0.145833 234.455 0.0454545 234.736 0.0454545C235.016 0.0454545 235.257 0.145833 235.457 0.346591C235.658 0.547348 235.759 0.787879 235.759 1.06818C235.759 1.25379 235.711 1.42424 235.616 1.57955C235.526 1.73485 235.402 1.85985 235.247 1.95455C235.096 2.04545 234.925 2.09091 234.736 2.09091ZM239.142 2.09091C238.862 2.09091 238.621 1.99053 238.42 1.78977C238.22 1.58902 238.119 1.34848 238.119 1.06818C238.119 0.787879 238.22 0.547348 238.42 0.346591C238.621 0.145833 238.862 0.0454545 239.142 0.0454545C239.422 0.0454545 239.663 0.145833 239.864 0.346591C240.064 0.547348 240.165 0.787879 240.165 1.06818C240.165 1.25379 240.117 1.42424 240.023 1.57955C239.932 1.73485 239.809 1.85985 239.653 1.95455C239.502 2.04545 239.331 2.09091 239.142 2.09091ZM243.548 2.09091C243.268 2.09091 243.027 1.99053 242.827 1.78977C242.626 1.58902 242.526 1.34848 242.526 1.06818C242.526 0.787879 242.626 0.547348 242.827 0.346591C243.027 0.145833 243.268 0.0454545 243.548 0.0454545C243.829 0.0454545 244.069 0.145833 244.27 0.346591C244.471 0.547348 244.571 0.787879 244.571 1.06818C244.571 1.25379 244.524 1.42424 244.429 1.57955C244.338 1.73485 244.215 1.85985 244.06 1.95455C243.908 2.04545 243.738 2.09091 243.548 2.09091ZM247.955 2.09091C247.674 2.09091 247.434 1.99053 247.233 1.78977C247.032 1.58902 246.932 1.34848 246.932 1.06818C246.932 0.787879 247.032 0.547348 247.233 0.346591C247.434 0.145833 247.674 0.0454545 247.955 0.0454545C248.235 0.0454545 248.475 0.145833 248.676 0.346591C248.877 0.547348 248.977 0.787879 248.977 1.06818C248.977 1.25379 248.93 1.42424 248.835 1.57955C248.744 1.73485 248.621 1.85985 248.466 1.95455C248.314 2.04545 248.144 2.09091 247.955 2.09091ZM252.361 2.09091C252.08 2.09091 251.84 1.99053 251.639 1.78977C251.438 1.58902 251.338 1.34848 251.338 1.06818C251.338 0.787879 251.438 0.547348 251.639 0.346591C251.84 0.145833 252.08 0.0454545 252.361 0.0454545C252.641 0.0454545 252.882 0.145833 253.082 0.346591C253.283 0.547348 253.384 0.787879 253.384 1.06818C253.384 1.25379 253.336 1.42424 253.241 1.57955C253.151 1.73485 253.027 1.85985 252.872 1.95455C252.721 2.04545 252.55 2.09091 252.361 2.09091ZM256.767 2.09091C256.487 2.09091 256.246 1.99053 256.045 1.78977C255.845 1.58902 255.744 1.34848 255.744 1.06818C255.744 0.787879 255.845 0.547348 256.045 0.346591C256.246 0.145833 256.487 0.0454545 256.767 0.0454545C257.047 0.0454545 257.288 0.145833 257.489 0.346591C257.689 0.547348 257.79 0.787879 257.79 1.06818C257.79 1.25379 257.742 1.42424 257.648 1.57955C257.557 1.73485 257.434 1.85985 257.278 1.95455C257.127 2.04545 256.956 2.09091 256.767 2.09091ZM261.173 2.09091C260.893 2.09091 260.652 1.99053 260.452 1.78977C260.251 1.58902 260.151 1.34848 260.151 1.06818C260.151 0.787879 260.251 0.547348 260.452 0.346591C260.652 0.145833 260.893 0.0454545 261.173 0.0454545C261.454 0.0454545 261.694 0.145833 261.895 0.346591C262.096 0.547348 262.196 0.787879 262.196 1.06818C262.196 1.25379 262.149 1.42424 262.054 1.57955C261.963 1.73485 261.84 1.85985 261.685 1.95455C261.533 2.04545 261.363 2.09091 261.173 2.09091ZM265.58 2.09091C265.299 2.09091 265.059 1.99053 264.858 1.78977C264.657 1.58902 264.557 1.34848 264.557 1.06818C264.557 0.787879 264.657 0.547348 264.858 0.346591C265.059 0.145833 265.299 0.0454545 265.58 0.0454545C265.86 0.0454545 266.1 0.145833 266.301 0.346591C266.502 0.547348 266.602 0.787879 266.602 1.06818C266.602 1.25379 266.555 1.42424 266.46 1.57955C266.369 1.73485 266.246 1.85985 266.091 1.95455C265.939 2.04545 265.769 2.09091 265.58 2.09091ZM269.986 2.09091C269.705 2.09091 269.465 1.99053 269.264 1.78977C269.063 1.58902 268.963 1.34848 268.963 1.06818C268.963 0.787879 269.063 0.547348 269.264 0.346591C269.465 0.145833 269.705 0.0454545 269.986 0.0454545C270.266 0.0454545 270.507 0.145833 270.707 0.346591C270.908 0.547348 271.009 0.787879 271.009 1.06818C271.009 1.25379 270.961 1.42424 270.866 1.57955C270.776 1.73485 270.652 1.85985 270.497 1.95455C270.346 2.04545 270.175 2.09091 269.986 2.09091ZM274.392 2.09091C274.112 2.09091 273.871 1.99053 273.67 1.78977C273.47 1.58902 273.369 1.34848 273.369 1.06818C273.369 0.787879 273.47 0.547348 273.67 0.346591C273.871 0.145833 274.112 0.0454545 274.392 0.0454545C274.672 0.0454545 274.913 0.145833 275.114 0.346591C275.314 0.547348 275.415 0.787879 275.415 1.06818C275.415 1.25379 275.367 1.42424 275.273 1.57955C275.182 1.73485 275.059 1.85985 274.903 1.95455C274.752 2.04545 274.581 2.09091 274.392 2.09091ZM278.798 2.09091C278.518 2.09091 278.277 1.99053 278.077 1.78977C277.876 1.58902 277.776 1.34848 277.776 1.06818C277.776 0.787879 277.876 0.547348 278.077 0.346591C278.277 0.145833 278.518 0.0454545 278.798 0.0454545C279.079 0.0454545 279.319 0.145833 279.52 0.346591C279.721 0.547348 279.821 0.787879 279.821 1.06818C279.821 1.25379 279.774 1.42424 279.679 1.57955C279.588 1.73485 279.465 1.85985 279.31 1.95455C279.158 2.04545 278.988 2.09091 278.798 2.09091ZM283.205 2.09091C282.924 2.09091 282.684 1.99053 282.483 1.78977C282.282 1.58902 282.182 1.34848 282.182 1.06818C282.182 0.787879 282.282 0.547348 282.483 0.346591C282.684 0.145833 282.924 0.0454545 283.205 0.0454545C283.485 0.0454545 283.725 0.145833 283.926 0.346591C284.127 0.547348 284.227 0.787879 284.227 1.06818C284.227 1.25379 284.18 1.42424 284.085 1.57955C283.994 1.73485 283.871 1.85985 283.716 1.95455C283.564 2.04545 283.394 2.09091 283.205 2.09091ZM287.611 2.09091C287.33 2.09091 287.09 1.99053 286.889 1.78977C286.688 1.58902 286.588 1.34848 286.588 1.06818C286.588 0.787879 286.688 0.547348 286.889 0.346591C287.09 0.145833 287.33 0.0454545 287.611 0.0454545C287.891 0.0454545 288.132 0.145833 288.332 0.346591C288.533 0.547348 288.634 0.787879 288.634 1.06818C288.634 1.25379 288.586 1.42424 288.491 1.57955C288.401 1.73485 288.277 1.85985 288.122 1.95455C287.971 2.04545 287.8 2.09091 287.611 2.09091ZM292.017 2.09091C291.737 2.09091 291.496 1.99053 291.295 1.78977C291.095 1.58902 290.994 1.34848 290.994 1.06818C290.994 0.787879 291.095 0.547348 291.295 0.346591C291.496 0.145833 291.737 0.0454545 292.017 0.0454545C292.297 0.0454545 292.538 0.145833 292.739 0.346591C292.939 0.547348 293.04 0.787879 293.04 1.06818C293.04 1.25379 292.992 1.42424 292.898 1.57955C292.807 1.73485 292.684 1.85985 292.528 1.95455C292.377 2.04545 292.206 2.09091 292.017 2.09091ZM296.423 2.09091C296.143 2.09091 295.902 1.99053 295.702 1.78977C295.501 1.58902 295.401 1.34848 295.401 1.06818C295.401 0.787879 295.501 0.547348 295.702 0.346591C295.902 0.145833 296.143 0.0454545 296.423 0.0454545C296.704 0.0454545 296.944 0.145833 297.145 0.346591C297.346 0.547348 297.446 0.787879 297.446 1.06818C297.446 1.25379 297.399 1.42424 297.304 1.57955C297.213 1.73485 297.09 1.85985 296.935 1.95455C296.783 2.04545 296.613 2.09091 296.423 2.09091ZM300.83 2.09091C300.549 2.09091 300.309 1.99053 300.108 1.78977C299.907 1.58902 299.807 1.34848 299.807 1.06818C299.807 0.787879 299.907 0.547348 300.108 0.346591C300.309 0.145833 300.549 0.0454545 300.83 0.0454545C301.11 0.0454545 301.35 0.145833 301.551 0.346591C301.752 0.547348 301.852 0.787879 301.852 1.06818C301.852 1.25379 301.805 1.42424 301.71 1.57955C301.619 1.73485 301.496 1.85985 301.341 1.95455C301.189 2.04545 301.019 2.09091 300.83 2.09091ZM305.236 2.09091C304.955 2.09091 304.715 1.99053 304.514 1.78977C304.313 1.58902 304.213 1.34848 304.213 1.06818C304.213 0.787879 304.313 0.547348 304.514 0.346591C304.715 0.145833 304.955 0.0454545 305.236 0.0454545C305.516 0.0454545 305.757 0.145833 305.957 0.346591C306.158 0.547348 306.259 0.787879 306.259 1.06818C306.259 1.25379 306.211 1.42424 306.116 1.57955C306.026 1.73485 305.902 1.85985 305.747 1.95455C305.596 2.04545 305.425 2.09091 305.236 2.09091ZM309.642 2.09091C309.362 2.09091 309.121 1.99053 308.92 1.78977C308.72 1.58902 308.619 1.34848 308.619 1.06818C308.619 0.787879 308.72 0.547348 308.92 0.346591C309.121 0.145833 309.362 0.0454545 309.642 0.0454545C309.922 0.0454545 310.163 0.145833 310.364 0.346591C310.564 0.547348 310.665 0.787879 310.665 1.06818C310.665 1.25379 310.617 1.42424 310.523 1.57955C310.432 1.73485 310.309 1.85985 310.153 1.95455C310.002 2.04545 309.831 2.09091 309.642 2.09091ZM314.048 2.09091C313.768 2.09091 313.527 1.99053 313.327 1.78977C313.126 1.58902 313.026 1.34848 313.026 1.06818C313.026 0.787879 313.126 0.547348 313.327 0.346591C313.527 0.145833 313.768 0.0454545 314.048 0.0454545C314.329 0.0454545 314.569 0.145833 314.77 0.346591C314.971 0.547348 315.071 0.787879 315.071 1.06818C315.071 1.25379 315.024 1.42424 314.929 1.57955C314.838 1.73485 314.715 1.85985 314.56 1.95455C314.408 2.04545 314.238 2.09091 314.048 2.09091ZM318.455 2.09091C318.174 2.09091 317.934 1.99053 317.733 1.78977C317.532 1.58902 317.432 1.34848 317.432 1.06818C317.432 0.787879 317.532 0.547348 317.733 0.346591C317.934 0.145833 318.174 0.0454545 318.455 0.0454545C318.735 0.0454545 318.975 0.145833 319.176 0.346591C319.377 0.547348 319.477 0.787879 319.477 1.06818C319.477 1.25379 319.43 1.42424 319.335 1.57955C319.244 1.73485 319.121 1.85985 318.966 1.95455C318.814 2.04545 318.644 2.09091 318.455 2.09091ZM322.861 2.09091C322.58 2.09091 322.34 1.99053 322.139 1.78977C321.938 1.58902 321.838 1.34848 321.838 1.06818C321.838 0.787879 321.938 0.547348 322.139 0.346591C322.34 0.145833 322.58 0.0454545 322.861 0.0454545C323.141 0.0454545 323.382 0.145833 323.582 0.346591C323.783 0.547348 323.884 0.787879 323.884 1.06818C323.884 1.25379 323.836 1.42424 323.741 1.57955C323.651 1.73485 323.527 1.85985 323.372 1.95455C323.221 2.04545 323.05 2.09091 322.861 2.09091ZM327.267 2.09091C326.987 2.09091 326.746 1.99053 326.545 1.78977C326.345 1.58902 326.244 1.34848 326.244 1.06818C326.244 0.787879 326.345 0.547348 326.545 0.346591C326.746 0.145833 326.987 0.0454545 327.267 0.0454545C327.547 0.0454545 327.788 0.145833 327.989 0.346591C328.189 0.547348 328.29 0.787879 328.29 1.06818C328.29 1.25379 328.242 1.42424 328.148 1.57955C328.057 1.73485 327.934 1.85985 327.778 1.95455C327.627 2.04545 327.456 2.09091 327.267 2.09091ZM331.673 2.09091C331.393 2.09091 331.152 1.99053 330.952 1.78977C330.751 1.58902 330.651 1.34848 330.651 1.06818C330.651 0.787879 330.751 0.547348 330.952 0.346591C331.152 0.145833 331.393 0.0454545 331.673 0.0454545C331.954 0.0454545 332.194 0.145833 332.395 0.346591C332.596 0.547348 332.696 0.787879 332.696 1.06818C332.696 1.25379 332.649 1.42424 332.554 1.57955C332.463 1.73485 332.34 1.85985 332.185 1.95455C332.033 2.04545 331.863 2.09091 331.673 2.09091ZM336.08 2.09091C335.799 2.09091 335.559 1.99053 335.358 1.78977C335.157 1.58902 335.057 1.34848 335.057 1.06818C335.057 0.787879 335.157 0.547348 335.358 0.346591C335.559 0.145833 335.799 0.0454545 336.08 0.0454545C336.36 0.0454545 336.6 0.145833 336.801 0.346591C337.002 0.547348 337.102 0.787879 337.102 1.06818C337.102 1.25379 337.055 1.42424 336.96 1.57955C336.869 1.73485 336.746 1.85985 336.591 1.95455C336.439 2.04545 336.269 2.09091 336.08 2.09091ZM340.486 2.09091C340.205 2.09091 339.965 1.99053 339.764 1.78977C339.563 1.58902 339.463 1.34848 339.463 1.06818C339.463 0.787879 339.563 0.547348 339.764 0.346591C339.965 0.145833 340.205 0.0454545 340.486 0.0454545C340.766 0.0454545 341.007 0.145833 341.207 0.346591C341.408 0.547348 341.509 0.787879 341.509 1.06818C341.509 1.25379 341.461 1.42424 341.366 1.57955C341.276 1.73485 341.152 1.85985 340.997 1.95455C340.846 2.04545 340.675 2.09091 340.486 2.09091ZM344.892 2.09091C344.612 2.09091 344.371 1.99053 344.17 1.78977C343.97 1.58902 343.869 1.34848 343.869 1.06818C343.869 0.787879 343.97 0.547348 344.17 0.346591C344.371 0.145833 344.612 0.0454545 344.892 0.0454545C345.172 0.0454545 345.413 0.145833 345.614 0.346591C345.814 0.547348 345.915 0.787879 345.915 1.06818C345.915 1.25379 345.867 1.42424 345.773 1.57955C345.682 1.73485 345.559 1.85985 345.403 1.95455C345.252 2.04545 345.081 2.09091 344.892 2.09091ZM349.298 2.09091C349.018 2.09091 348.777 1.99053 348.577 1.78977C348.376 1.58902 348.276 1.34848 348.276 1.06818C348.276 0.787879 348.376 0.547348 348.577 0.346591C348.777 0.145833 349.018 0.0454545 349.298 0.0454545C349.579 0.0454545 349.819 0.145833 350.02 0.346591C350.221 0.547348 350.321 0.787879 350.321 1.06818C350.321 1.25379 350.274 1.42424 350.179 1.57955C350.088 1.73485 349.965 1.85985 349.81 1.95455C349.658 2.04545 349.488 2.09091 349.298 2.09091ZM353.705 2.09091C353.424 2.09091 353.184 1.99053 352.983 1.78977C352.782 1.58902 352.682 1.34848 352.682 1.06818C352.682 0.787879 352.782 0.547348 352.983 0.346591C353.184 0.145833 353.424 0.0454545 353.705 0.0454545C353.985 0.0454545 354.225 0.145833 354.426 0.346591C354.627 0.547348 354.727 0.787879 354.727 1.06818C354.727 1.25379 354.68 1.42424 354.585 1.57955C354.494 1.73485 354.371 1.85985 354.216 1.95455C354.064 2.04545 353.894 2.09091 353.705 2.09091ZM358.111 2.09091C357.83 2.09091 357.59 1.99053 357.389 1.78977C357.188 1.58902 357.088 1.34848 357.088 1.06818C357.088 0.787879 357.188 0.547348 357.389 0.346591C357.59 0.145833 357.83 0.0454545 358.111 0.0454545C358.391 0.0454545 358.632 0.145833 358.832 0.346591C359.033 0.547348 359.134 0.787879 359.134 1.06818C359.134 1.25379 359.086 1.42424 358.991 1.57955C358.901 1.73485 358.777 1.85985 358.622 1.95455C358.471 2.04545 358.3 2.09091 358.111 2.09091ZM362.517 2.09091C362.237 2.09091 361.996 1.99053 361.795 1.78977C361.595 1.58902 361.494 1.34848 361.494 1.06818C361.494 0.787879 361.595 0.547348 361.795 0.346591C361.996 0.145833 362.237 0.0454545 362.517 0.0454545C362.797 0.0454545 363.038 0.145833 363.239 0.346591C363.439 0.547348 363.54 0.787879 363.54 1.06818C363.54 1.25379 363.492 1.42424 363.398 1.57955C363.307 1.73485 363.184 1.85985 363.028 1.95455C362.877 2.04545 362.706 2.09091 362.517 2.09091ZM366.923 2.09091C366.643 2.09091 366.402 1.99053 366.202 1.78977C366.001 1.58902 365.901 1.34848 365.901 1.06818C365.901 0.787879 366.001 0.547348 366.202 0.346591C366.402 0.145833 366.643 0.0454545 366.923 0.0454545C367.204 0.0454545 367.444 0.145833 367.645 0.346591C367.846 0.547348 367.946 0.787879 367.946 1.06818C367.946 1.25379 367.899 1.42424 367.804 1.57955C367.713 1.73485 367.59 1.85985 367.435 1.95455C367.283 2.04545 367.113 2.09091 366.923 2.09091ZM371.33 2.09091C371.049 2.09091 370.809 1.99053 370.608 1.78977C370.407 1.58902 370.307 1.34848 370.307 1.06818C370.307 0.787879 370.407 0.547348 370.608 0.346591C370.809 0.145833 371.049 0.0454545 371.33 0.0454545C371.61 0.0454545 371.85 0.145833 372.051 0.346591C372.252 0.547348 372.352 0.787879 372.352 1.06818C372.352 1.25379 372.305 1.42424 372.21 1.57955C372.119 1.73485 371.996 1.85985 371.841 1.95455C371.689 2.04545 371.519 2.09091 371.33 2.09091ZM375.736 2.09091C375.455 2.09091 375.215 1.99053 375.014 1.78977C374.813 1.58902 374.713 1.34848 374.713 1.06818C374.713 0.787879 374.813 0.547348 375.014 0.346591C375.215 0.145833 375.455 0.0454545 375.736 0.0454545C376.016 0.0454545 376.257 0.145833 376.457 0.346591C376.658 0.547348 376.759 0.787879 376.759 1.06818C376.759 1.25379 376.711 1.42424 376.616 1.57955C376.526 1.73485 376.402 1.85985 376.247 1.95455C376.096 2.04545 375.925 2.09091 375.736 2.09091ZM380.142 2.09091C379.862 2.09091 379.621 1.99053 379.42 1.78977C379.22 1.58902 379.119 1.34848 379.119 1.06818C379.119 0.787879 379.22 0.547348 379.42 0.346591C379.621 0.145833 379.862 0.0454545 380.142 0.0454545C380.422 0.0454545 380.663 0.145833 380.864 0.346591C381.064 0.547348 381.165 0.787879 381.165 1.06818C381.165 1.25379 381.117 1.42424 381.023 1.57955C380.932 1.73485 380.809 1.85985 380.653 1.95455C380.502 2.04545 380.331 2.09091 380.142 2.09091ZM384.548 2.09091C384.268 2.09091 384.027 1.99053 383.827 1.78977C383.626 1.58902 383.526 1.34848 383.526 1.06818C383.526 0.787879 383.626 0.547348 383.827 0.346591C384.027 0.145833 384.268 0.0454545 384.548 0.0454545C384.829 0.0454545 385.069 0.145833 385.27 0.346591C385.471 0.547348 385.571 0.787879 385.571 1.06818C385.571 1.25379 385.524 1.42424 385.429 1.57955C385.338 1.73485 385.215 1.85985 385.06 1.95455C384.908 2.04545 384.738 2.09091 384.548 2.09091ZM388.955 2.09091C388.674 2.09091 388.434 1.99053 388.233 1.78977C388.032 1.58902 387.932 1.34848 387.932 1.06818C387.932 0.787879 388.032 0.547348 388.233 0.346591C388.434 0.145833 388.674 0.0454545 388.955 0.0454545C389.235 0.0454545 389.475 0.145833 389.676 0.346591C389.877 0.547348 389.977 0.787879 389.977 1.06818C389.977 1.25379 389.93 1.42424 389.835 1.57955C389.744 1.73485 389.621 1.85985 389.466 1.95455C389.314 2.04545 389.144 2.09091 388.955 2.09091ZM393.361 2.09091C393.08 2.09091 392.84 1.99053 392.639 1.78977C392.438 1.58902 392.338 1.34848 392.338 1.06818C392.338 0.787879 392.438 0.547348 392.639 0.346591C392.84 0.145833 393.08 0.0454545 393.361 0.0454545C393.641 0.0454545 393.882 0.145833 394.082 0.346591C394.283 0.547348 394.384 0.787879 394.384 1.06818C394.384 1.25379 394.336 1.42424 394.241 1.57955C394.151 1.73485 394.027 1.85985 393.872 1.95455C393.721 2.04545 393.55 2.09091 393.361 2.09091ZM397.767 2.09091C397.487 2.09091 397.246 1.99053 397.045 1.78977C396.845 1.58902 396.744 1.34848 396.744 1.06818C396.744 0.787879 396.845 0.547348 397.045 0.346591C397.246 0.145833 397.487 0.0454545 397.767 0.0454545C398.047 0.0454545 398.288 0.145833 398.489 0.346591C398.689 0.547348 398.79 0.787879 398.79 1.06818C398.79 1.25379 398.742 1.42424 398.648 1.57955C398.557 1.73485 398.434 1.85985 398.278 1.95455C398.127 2.04545 397.956 2.09091 397.767 2.09091ZM402.173 2.09091C401.893 2.09091 401.652 1.99053 401.452 1.78977C401.251 1.58902 401.151 1.34848 401.151 1.06818C401.151 0.787879 401.251 0.547348 401.452 0.346591C401.652 0.145833 401.893 0.0454545 402.173 0.0454545C402.454 0.0454545 402.694 0.145833 402.895 0.346591C403.096 0.547348 403.196 0.787879 403.196 1.06818C403.196 1.25379 403.149 1.42424 403.054 1.57955C402.963 1.73485 402.84 1.85985 402.685 1.95455C402.533 2.04545 402.363 2.09091 402.173 2.09091Z" fill="#D9D9D9"/>
</svg>
