<svg width="48" height="46" viewBox="0 0 48 46" fill="none" xmlns="http://www.w3.org/2000/svg">
<path d="M23.9996 18.8181V27.7254H36.916C36.3488 30.5899 34.6468 33.0155 32.0941 34.6464L39.8831 40.4382C44.4213 36.4238 47.0395 30.5274 47.0395 23.5229C47.0395 21.892 46.8868 20.3237 46.6031 18.8184L23.9996 18.8181Z" fill="#4285F4"/>
<path d="M10.5494 27.3777L8.79263 28.6664L2.57434 33.3081C6.52342 40.8144 14.6174 46 23.9991 46C30.4789 46 35.9116 43.9509 39.8826 40.4382L32.0936 34.6464C29.9554 36.0264 27.2281 36.8628 23.9991 36.8628C17.7591 36.8628 12.4575 32.8274 10.5592 27.391L10.5494 27.3777Z" fill="#34A853"/>
<path d="M2.57436 12.6919C0.938084 15.7863 0 19.2782 0 22.9999C0 26.7217 0.938084 30.2136 2.57436 33.308C2.57436 33.3288 10.5599 27.3698 10.5599 27.3698C10.08 25.9898 9.79624 24.5263 9.79624 22.9997C9.79624 21.4731 10.08 20.0096 10.5599 18.6296L2.57436 12.6919Z" fill="#FBBC05"/>
<path d="M23.9996 9.15817C27.5342 9.15817 30.676 10.3291 33.1851 12.5873L40.0577 6.00099C35.8904 2.27923 30.4797 0 23.9996 0C14.6179 0 6.52342 5.16454 2.57434 12.6918L10.5597 18.63C12.4578 13.1936 17.7596 9.15817 23.9996 9.15817Z" fill="#EA4335"/>
</svg>
