<svg width="128" height="51" viewBox="0 0 128 51" fill="none" xmlns="http://www.w3.org/2000/svg">
<path d="M10.6181 1.68335H1.52148V10.78H10.6181V1.68335Z" fill="#00C7FD"/>
<path d="M10.3915 49.0764V16.3156H1.78052V49.0764H10.3915ZM67.6257 49.4001V41.3718C66.3632 41.3718 65.2949 41.307 64.518 41.1775C63.6116 41.048 62.9318 40.7243 62.4785 40.2711C62.0253 39.8179 61.734 39.1705 61.5721 38.3288C61.4426 37.5195 61.3779 36.4512 61.3779 35.1563V23.6965H67.6257V16.3156H61.3779V3.52858H52.7345V35.221C52.7345 37.9079 52.9611 40.174 53.4143 41.9868C53.8675 43.7673 54.6445 45.2241 55.7127 46.3247C56.781 47.4254 58.2054 48.2023 59.9211 48.6879C61.6692 49.1735 63.8706 49.4001 66.4927 49.4001H67.6257ZM117.091 49.0764V1.00354H108.447V49.0764H117.091ZM44.4148 19.5205C42.0193 16.9307 38.6525 15.6358 34.3794 15.6358C32.3076 15.6358 30.43 16.0567 28.7143 16.8983C27.0309 17.74 25.5741 18.9054 24.4411 20.3945L23.9555 21.0096V20.4593V16.3156H15.4416V49.0764H24.0203V31.6277V32.8255C24.0203 32.6313 24.0203 32.437 24.0203 32.2428C24.1174 29.1674 24.862 26.9014 26.2863 25.4446C27.8078 23.8907 29.6531 23.1138 31.7572 23.1138C34.2499 23.1138 36.1599 23.8907 37.4224 25.3799C38.6525 26.869 39.3 28.9732 39.3 31.6601V31.7248V49.044H48.0081V30.4623C48.0405 25.8007 46.8104 22.1103 44.4148 19.5205ZM103.98 32.6313C103.98 30.2681 103.559 28.0668 102.75 25.9949C101.908 23.9555 100.743 22.1426 99.2858 20.5888C97.7967 19.0349 96.0162 17.8371 93.9444 16.9631C91.8726 16.089 89.5741 15.6682 87.0815 15.6682C84.7183 15.6682 82.4846 16.1214 80.4128 16.9954C78.341 17.9019 76.5281 19.0996 75.0066 20.6211C73.4851 22.1426 72.255 23.9555 71.3809 26.0273C70.4745 28.0991 70.0537 30.3328 70.0537 32.696C70.0537 35.0592 70.4745 37.2929 71.3162 39.3647C72.1579 41.4365 73.3556 43.2494 74.8448 44.7709C76.3339 46.2924 78.1791 47.5225 80.3157 48.3966C82.4522 49.303 84.8154 49.7562 87.3405 49.7562C94.6566 49.7562 99.1887 46.4218 101.908 43.3141L95.6925 38.5878C94.3976 40.1416 91.2899 42.2458 87.4052 42.2458C84.9773 42.2458 82.9702 41.6955 81.4487 40.5625C79.9272 39.4618 78.8913 37.9079 78.341 35.998L78.2438 35.7066H103.98V32.6313ZM78.3086 29.6206C78.3086 27.2251 81.0602 23.0491 86.9844 23.0167C92.9085 23.0167 95.6925 27.1927 95.6925 29.5883L78.3086 29.6206Z" fill="#0068B5"/>
<path d="M126.932 44.8032C126.77 44.4147 126.543 44.091 126.252 43.7996C125.961 43.5083 125.637 43.2817 125.248 43.1198C124.86 42.958 124.439 42.8608 124.018 42.8608C123.565 42.8608 123.177 42.958 122.788 43.1198C122.4 43.2817 122.076 43.5083 121.785 43.7996C121.493 44.091 121.267 44.4147 121.105 44.8032C120.943 45.1916 120.846 45.6125 120.846 46.0333C120.846 46.4865 120.943 46.875 121.105 47.2635C121.267 47.6519 121.493 47.9757 121.785 48.267C122.076 48.5584 122.4 48.785 122.788 48.9468C123.177 49.1087 123.597 49.2058 124.018 49.2058C124.471 49.2058 124.86 49.1087 125.248 48.9468C125.637 48.785 125.961 48.5584 126.252 48.267C126.543 47.9757 126.77 47.6519 126.932 47.2635C127.094 46.875 127.191 46.4542 127.191 46.0333C127.191 45.6125 127.094 45.1916 126.932 44.8032ZM126.414 47.0692C126.284 47.393 126.09 47.6843 125.863 47.9109C125.637 48.1375 125.345 48.3318 125.022 48.4612C124.698 48.5907 124.374 48.6555 123.986 48.6555C123.63 48.6555 123.274 48.5907 122.95 48.4612C122.626 48.3318 122.335 48.1375 122.108 47.9109C121.882 47.6843 121.687 47.393 121.558 47.0692C121.428 46.7455 121.364 46.4218 121.364 46.0333C121.364 45.6772 121.428 45.3211 121.558 44.9974C121.687 44.6737 121.882 44.3823 122.108 44.1557C122.335 43.9291 122.626 43.7349 122.95 43.6054C123.274 43.4759 123.597 43.4112 123.986 43.4112C124.342 43.4112 124.698 43.4759 125.022 43.6054C125.345 43.7349 125.637 43.9291 125.863 44.1557C126.09 44.3823 126.284 44.6737 126.414 44.9974C126.543 45.3211 126.608 45.6449 126.608 46.0333C126.64 46.4218 126.543 46.7455 126.414 47.0692ZM124.601 46.2923C124.86 46.2599 125.054 46.1628 125.216 46.001C125.378 45.8391 125.475 45.6125 125.475 45.2888C125.475 44.9327 125.378 44.6737 125.151 44.4795C124.957 44.2852 124.601 44.1881 124.18 44.1881H122.756V47.8462H123.435V46.357H123.921L124.827 47.8462H125.54L124.601 46.2923ZM124.245 45.7743C124.148 45.7743 124.051 45.7743 123.921 45.7743H123.435V44.7384H123.921C124.018 44.7384 124.115 44.7384 124.245 44.7384C124.342 44.7384 124.439 44.7708 124.536 44.8032C124.633 44.8355 124.698 44.9003 124.73 44.965C124.763 45.0298 124.795 45.1269 124.795 45.2564C124.795 45.3859 124.763 45.483 124.73 45.5477C124.666 45.6125 124.601 45.6772 124.536 45.7096C124.439 45.742 124.342 45.7743 124.245 45.7743Z" fill="#0068B5"/>
</svg>
