<svg width="128" height="57" viewBox="0 0 128 57" fill="none" xmlns="http://www.w3.org/2000/svg">
<g clip-path="url(#clip0_84_517)">
<path d="M28.088 57C43.5877 57 56.1761 44.2545 56.1761 28.5063C56.1761 12.7573 43.5877 0 28.088 0C12.5644 0 0 12.7573 0 28.5063C0 44.2545 12.5644 57 28.088 57Z" fill="#A50034"/>
<path d="M26.958 15.9962V41.0038H34.787V38.7552H29.2145V15.9962H26.958Z" fill="white"/>
<path d="M19.1188 22.8195C20.9814 22.8195 22.4828 21.2816 22.4828 19.4034C22.4828 17.5238 20.9814 15.98 19.1188 15.98C17.2562 15.98 15.7548 17.5238 15.7548 19.4034C15.7548 21.283 17.2562 22.8195 19.1188 22.8195Z" fill="white"/>
<path d="M29.2137 4.65211C28.9201 4.63735 28.362 4.6189 28.0953 4.6189C15.1305 4.6189 4.5791 15.3372 4.5791 28.4944C4.5791 34.8852 7.02454 40.8753 11.4539 45.3799C15.9015 49.8741 21.8033 52.3574 28.0953 52.3574C34.3633 52.3574 40.2636 49.8741 44.7032 45.3799C49.1435 40.8753 51.6006 34.8852 51.6006 28.4944V27.4325H50.6493H34.8088V29.6301H49.3608C49.3608 29.6781 49.3608 29.9113 49.3506 29.9718C48.6108 41.22 39.3596 50.1287 28.0953 50.1287C22.3934 50.1287 17.0468 47.8772 13.023 43.7881C8.98598 39.716 6.76146 34.2912 6.76146 28.4937C6.76146 22.7294 8.98598 17.2765 13.023 13.1919C17.0468 9.11091 22.3934 6.85937 28.0953 6.85937C28.3409 6.85937 28.9383 6.85937 29.2137 6.87413V4.65211Z" fill="white"/>
<path d="M77.2998 9.59504H68.8596V46.6987H94.7835V39.4762H77.2998V9.59504ZM113.351 32.5592H120.225V39.0467C118.957 39.5367 116.486 40.0252 114.134 40.0252C106.538 40.0252 104.007 36.1073 104.007 28.1498C104.007 20.5613 106.417 16.087 114.013 16.087C118.235 16.087 120.646 17.4345 122.633 20.0063L127.881 15.1069C124.685 10.4577 119.077 9.04968 113.833 9.04968C102.014 9.04968 95.8052 15.5999 95.8052 28.0878C95.8052 40.5152 101.412 47.2492 113.774 47.2492C119.44 47.2492 124.987 45.7806 128 43.6383V25.6392H113.351V32.5592Z" fill="#6B6B6B"/>
</g>
<defs>
<clipPath id="clip0_84_517">
<rect width="128" height="57" fill="white"/>
</clipPath>
</defs>
</svg>
