<svg width="36" height="46" viewBox="0 0 36 46" fill="none" xmlns="http://www.w3.org/2000/svg">
<path fill-rule="evenodd" clip-rule="evenodd" d="M15.7454 44.9087C10.9144 40.9213 0 30.5211 0 17.9447C0 13.1853 1.89643 8.62175 5.27211 5.25635C8.64778 1.89095 13.2264 0 18.0003 0C22.7742 0 27.3523 1.89066 30.728 5.25606C34.1037 8.62146 36 13.1865 36 17.9459C36 30.5223 25.0861 40.9217 20.2551 44.9091C19.5611 45.4819 19.2137 45.7678 18.697 45.9145C18.2953 46.0285 17.7041 46.0285 17.3025 45.9145C16.7867 45.7681 16.4368 45.4794 15.7454 44.9087ZM17.9987 25.1423C22.4163 25.2224 26.0623 21.7061 26.1423 17.2886C26.2224 12.871 22.7062 9.22501 18.2886 9.14495C13.8711 9.0649 10.225 12.5811 10.145 16.9987C10.0649 21.4162 13.5812 25.0623 17.9987 25.1423Z" fill="#FF4433"/>
</svg>
